# xmcd
# 
# Track frame offsets:
#     150
#     21364
#     40179
#     57928
#     82827
#     102800
#     126528
#     141171
#     155326
#     183484
#     197755
#     216698
#     232194
#     267686
#     286477
#     307248
#     316747
# 
# Disc length: 4576
# 
# Revision: 2
# Processed by: cddbd v1.5.2PL0 Copyright (c) Steve Scherf et al.
# Submitted via: fre:ac v1.0.27
# 
DISCID=0911de11
DTITLE=Various Artist - Come Into the Cool - Modern Classics
DYEAR=2007
DGENRE=Jazz
TTITLE0=Diana Krall - The Look Of Love
TTITLE1=Jamie Cullum - I Get A Kick Out Of You
TTITLE2=Madeleine Peyroux - Dance Me To The End Of Love
TTITLE3=Chris Botti - Drivetime
TTITLE4=Natalie Cole - My Baby Just Cares For Me
TTITLE5=Claire Martin - Everything Must Change
TTITLE6=Curtis Stigers - But Not For Me
TTITLE7=Stacey Kent - Makin' Whoopee
TTITLE8=Courtney Pine - Tryin' Times
TTITLE9=Gwyneth Herbert - It's Alright With Me
TTITLE10=Peter Cincotti - Sway
TTITLE11=Clare Teal - I Just Want To Make Love To You
TTITLE12=Wayne Shorter - Footprints
TTITLE13=Jane Monheit - Surrender
TTITLE14=Jacqui Dankworth - Blue Moon
TTITLE15=Amy Winehouse - There Is No Greater Love
TTITLE16=Lizz Wright - Afro Blue
EXTD=YEAR: 2007
EXTT0=
EXTT1=
EXTT2=
EXTT3=
EXTT4=
EXTT5=
EXTT6=
EXTT7=
EXTT8=
EXTT9=
EXTT10=
EXTT11=
EXTT12=
EXTT13=
EXTT14=
EXTT15=
EXTT16=
PLAYORDER=
